<svg width="95" height="29" viewBox="0 0 95 29" fill="none" xmlns="http://www.w3.org/2000/svg">
<g clip-path="url(#clip0_144_509)">
<path d="M42.3395 20.0877V27H39V7.36626H42.2406L42.2653 8.51574C43.3455 7.55141 44.6484 7.05768 46.1408 7.00368C48.5486 6.92653 50.6843 8.06829 51.8634 10.0124C53.5291 12.7588 53.3889 16.8553 51.278 19.3702C49.0763 21.9778 44.937 22.3789 42.3395 20.0877ZM45.8358 18.7145C47.5921 18.7299 48.8702 17.7193 49.3567 16.2227C49.7525 14.9806 49.7443 13.5997 49.3732 12.3576C48.8949 10.753 47.4932 9.78094 45.7368 9.85809C43.9805 9.93524 42.5127 11.1079 42.389 12.8205C42.3148 13.7926 42.3148 14.7877 42.389 15.7598C42.5292 17.457 43.9805 18.6991 45.844 18.7145H45.8358Z" fill="#2C64FF"/>
<path d="M77.6044 18.5619C79.3982 19.9241 81.9719 19.1321 83.2431 16.8909L85.5594 18.5778C84.4519 20.7003 82.3384 21.8724 79.9597 21.9912C77.0663 22.1337 74.5394 20.5419 73.549 17.7303C72.808 15.6395 72.8158 13.2794 73.5801 11.1966C74.5706 8.48008 77.0273 6.88029 79.8427 7.00701C84.2492 7.19708 86.3315 11.1253 85.9572 15.4336H76.2084C76.263 16.6533 76.6452 17.8254 77.6044 18.554V18.5619ZM82.8298 13.0894C82.7596 10.8639 81.0828 9.31165 78.5637 9.99275C78.1582 10.1036 77.776 10.2779 77.4485 10.5471C76.7543 11.1332 76.2552 12.0519 76.2318 13.0973H82.8298V13.0894Z" fill="#2C64FF"/>
<path d="M72.6489 21C70.5013 20.8433 68.3455 20.7728 66.1897 20.7806C64.3769 20.7806 62.5641 20.8511 60.7513 20.9687C60.5063 20.0207 60.2695 19.0727 60.0245 18.117C62.6376 15.2653 65.2506 12.7034 67.8719 10.0319C65.2506 10.0476 62.6294 10.0006 60.0163 9.87521C60.0163 8.91942 60.0082 7.96363 60 7C62.0578 7.2742 70.1093 7.32121 72.0446 7.08618C72.5101 7.98713 72.5345 8.03414 73 8.94292C70.0848 12.1628 67.1614 14.9832 64.2381 17.9994C67.0389 17.9603 69.8398 17.9994 72.6407 18.1248C72.6407 19.0806 72.6407 20.0364 72.6407 20.9922L72.6489 21Z" fill="#2C64FF"/>
<path d="M33.751 21.898C30.1442 22.4211 26.6154 20.9549 26 16.9524L28.8667 16.1757C29.0926 17.1664 29.412 18.165 30.3078 18.7119C31.8502 19.6551 34.6312 19.4173 34.826 17.9114C35.1298 15.5178 28.8901 15.8269 27.2308 13.0688C26.1246 11.2379 26.8413 8.99494 28.6408 7.89326C31.8191 5.94353 36.6956 7.25128 37.7082 11.1745L34.8727 12.0067C34.5533 11.1111 33.9613 10.3265 33.2446 10.0253C32.2086 9.58937 31.1725 9.60522 30.3312 10.2076C30.043 10.4136 29.8794 10.8654 29.8794 11.1983C29.8794 13.0925 37.5135 12.9103 37.9731 17.1664C38.2535 19.7819 36.3061 21.5255 33.7588 21.898H33.751Z" fill="#2C64FF"/>
<path d="M58 7H55V21H58V7Z" fill="#2C64FF"/>
<path d="M57.9929 2.00733C57.9294 2.4401 57.8871 2.94621 57.8871 3.50367C57.8871 3.94377 57.9153 4.44254 57.9929 5C57.5553 4.94132 57.0541 4.89731 56.4965 4.89731C56.0588 4.89731 55.5506 4.92665 55 5C55.0565 4.55257 55.0988 4.03912 55.0988 3.47433C55.0988 2.92421 55.0565 2.43276 55 2C55.4447 2.05868 55.9459 2.10269 56.5035 2.10269C57.0541 2.10269 57.5624 2.05868 58 2L57.9929 2.00733Z" fill="#2C64FF"/>
<path fill-rule="evenodd" clip-rule="evenodd" d="M12.9141 1.1486L0.93656 9.04636C0.249835 9.50046 -0.0444763 10.2395 0.0179533 10.9518C-0.0266392 11.3169 0.000116311 11.7086 0.124975 12.1093L1.12385 15.2613C1.40032 16.1339 2.24758 16.6948 3.15727 16.6236L8.41919 16.214C8.96322 16.1695 9.4359 16.5791 9.4805 17.1133C9.52509 17.6475 9.11484 18.1283 8.57081 18.1729L3.30888 18.5824C2.39028 18.6537 1.65004 19.3482 1.50735 20.2475L1.00791 23.5152C0.651168 25.8747 3.27321 27.5309 5.26204 26.2131L17.2396 18.3153C17.9263 17.8612 18.2206 17.1222 18.1582 16.4099C18.2028 16.0448 18.176 15.6531 18.0512 15.2524L17.0523 12.1004C16.7758 11.2278 15.9286 10.6669 15.0189 10.7381L9.75697 11.1477C9.21294 11.1922 8.74026 10.7826 8.69567 10.2484C8.65107 9.70525 9.06133 9.23334 9.60536 9.18883L14.8673 8.77925C15.7859 8.70801 16.5261 8.01351 16.6688 7.11422L17.1683 3.84649C17.525 1.48695 14.903 -0.169172 12.9141 1.1486Z" fill="#2C64FF"/>
</g>
<defs>
<clipPath id="clip0_144_509">
<rect width="95" height="29" fill="white"/>
</clipPath>
</defs>
</svg>
